<?xml version="1.0" encoding="UTF-8"?>
<!DOCTYPE svg PUBLIC "-//W3C//DTD SVG 1.1//EN" "http://www.w3.org/Graphics/SVG/1.1/DTD/svg11.dtd">
<svg xmlns="http://www.w3.org/2000/svg" version="1.1" width="449px" height="285px" style="shape-rendering:geometricPrecision; text-rendering:geometricPrecision; image-rendering:optimizeQuality; fill-rule:evenodd; clip-rule:evenodd" xmlns:xlink="http://www.w3.org/1999/xlink">
<g><path style="opacity:1" fill="#fefefe" d="M -0.5,-0.5 C 149.167,-0.5 298.833,-0.5 448.5,-0.5C 448.5,94.5 448.5,189.5 448.5,284.5C 298.833,284.5 149.167,284.5 -0.5,284.5C -0.5,189.5 -0.5,94.5 -0.5,-0.5 Z"/></g>
<g><path style="opacity:1" fill="#3f84c4" d="M 277.5,175.5 C 272.067,177.775 266.401,179.275 260.5,180C 236.167,180.667 211.833,180.667 187.5,180C 182.757,179.471 178.091,178.638 173.5,177.5C 158.572,171.072 148.739,160.072 144,144.5C 142.374,115.54 142.041,86.5403 143,57.5C 148.167,36.3333 161.333,23.1667 182.5,18C 209.5,17.3333 236.5,17.3333 263.5,18C 286.88,23.3805 300.714,37.8805 305,61.5C 305.667,86.5 305.667,111.5 305,136.5C 302.672,154.542 293.506,167.542 277.5,175.5 Z"/></g>
<g><path style="opacity:1" fill="#fbfcfc" d="M 272.5,133.5 C 268.03,134.486 263.363,134.819 258.5,134.5C 255.387,130.451 252.387,126.284 249.5,122C 244.511,121.501 239.511,121.334 234.5,121.5C 234.5,126.167 234.5,130.833 234.5,135.5C 230.167,135.5 225.833,135.5 221.5,135.5C 221.5,115.5 221.5,95.5 221.5,75.5C 215.5,75.5 209.5,75.5 203.5,75.5C 203.5,95.1667 203.5,114.833 203.5,134.5C 199.5,134.5 195.5,134.5 191.5,134.5C 191.83,114.993 191.497,95.6595 190.5,76.5C 183.5,76.5 176.5,76.5 169.5,76.5C 169.5,72.1667 169.5,67.8333 169.5,63.5C 198.169,63.3334 226.835,63.5 255.5,64C 277.981,73.7847 283.148,89.2847 271,110.5C 267.974,113.026 264.807,115.36 261.5,117.5C 265.177,122.862 268.843,128.196 272.5,133.5 Z"/></g>
<g><path style="opacity:1" fill="#b2c1e4" d="M 234.5,76.5 C 236.81,75.8362 239.31,75.5029 242,75.5C 246.112,75.3489 249.946,76.0156 253.5,77.5C 247.178,76.986 240.845,76.6527 234.5,76.5 Z"/></g>
<g><path style="opacity:1" fill="#4184c3" d="M 234.5,76.5 C 240.845,76.6527 247.178,76.986 253.5,77.5C 264.777,82.2029 267.611,90.2029 262,101.5C 259.574,103.452 257.074,105.119 254.5,106.5C 247.841,106.954 241.174,107.287 234.5,107.5C 234.5,97.1667 234.5,86.8333 234.5,76.5 Z"/></g>
<g><path style="opacity:1" fill="#c6d2fb" d="M 190.5,76.5 C 191.497,95.6595 191.83,114.993 191.5,134.5C 195.5,134.5 199.5,134.5 203.5,134.5C 203.5,134.833 203.5,135.167 203.5,135.5C 199.167,135.5 194.833,135.5 190.5,135.5C 190.5,115.833 190.5,96.1667 190.5,76.5 Z"/></g>
<g><path style="opacity:1" fill="#7e98c6" d="M 221.5,135.5 C 220.503,116.007 220.17,96.3404 220.5,76.5C 215.12,76.3243 209.787,76.6576 204.5,77.5C 204.83,97.0072 204.497,116.341 203.5,135.5C 203.5,135.167 203.5,134.833 203.5,134.5C 203.5,114.833 203.5,95.1667 203.5,75.5C 209.5,75.5 215.5,75.5 221.5,75.5C 221.5,95.5 221.5,115.5 221.5,135.5 Z"/></g>
<g><path style="opacity:1" fill="#b3c1e2" d="M 254.5,106.5 C 250.594,107.94 246.427,108.606 242,108.5C 239.31,108.497 236.81,108.164 234.5,107.5C 241.174,107.287 247.841,106.954 254.5,106.5 Z"/></g>
<g><path style="opacity:1" fill="#c9d0ec" d="M 272.5,133.5 C 273.043,133.56 273.376,133.893 273.5,134.5C 268.348,135.814 263.348,135.814 258.5,134.5C 263.363,134.819 268.03,134.486 272.5,133.5 Z"/></g>
<g><path style="opacity:1" fill="#b9d4ec" d="M 277.5,175.5 C 277.5,176.5 277.5,177.5 277.5,178.5C 272.22,179.522 266.887,180.355 261.5,181C 236.167,181.667 210.833,181.667 185.5,181C 181.132,180.707 177.132,179.54 173.5,177.5C 178.091,178.638 182.757,179.471 187.5,180C 211.833,180.667 236.167,180.667 260.5,180C 266.401,179.275 272.067,177.775 277.5,175.5 Z"/></g>
<g><path style="opacity:1" fill="#6595c2" d="M 240.5,196.5 C 244.167,196.5 247.833,196.5 251.5,196.5C 251.5,217.5 251.5,238.5 251.5,259.5C 247.833,259.5 244.167,259.5 240.5,259.5C 240.5,238.5 240.5,217.5 240.5,196.5 Z"/></g>
<g><path style="opacity:1" fill="#3e84c6" d="M 241.5,197.5 C 244.5,197.5 247.5,197.5 250.5,197.5C 250.5,217.833 250.5,238.167 250.5,258.5C 247.5,258.5 244.5,258.5 241.5,258.5C 241.5,238.167 241.5,217.833 241.5,197.5 Z"/></g>
<g><path style="opacity:1" fill="#3f85c7" d="M 63.5,200.5 C 63.5,203.167 63.5,205.833 63.5,208.5C 57.31,208.177 51.31,208.51 45.5,209.5C 44.5036,225.658 44.1702,241.991 44.5,258.5C 41.8333,258.5 39.1667,258.5 36.5,258.5C 36.8298,241.991 36.4964,225.658 35.5,209.5C 29.69,208.51 23.69,208.177 17.5,208.5C 17.5,205.833 17.5,203.167 17.5,200.5C 32.8333,200.5 48.1667,200.5 63.5,200.5 Z"/></g>
<g><path style="opacity:1" fill="#7ca6cf" d="M 127.5,220.5 C 119.704,218.518 111.704,218.018 103.5,219C 100.565,219.101 99.2315,220.601 99.5,223.5C 99.6399,225.03 100.307,226.03 101.5,226.5C 100.791,227.404 99.791,227.737 98.5,227.5C 98.3359,224.813 98.5026,222.146 99,219.5C 100.067,218.809 101.234,218.309 102.5,218C 109.5,217.333 116.5,217.333 123.5,218C 125.32,218.2 126.653,219.034 127.5,220.5 Z"/></g>
<g><path style="opacity:1" fill="#668fbb" d="M 415.5,218.5 C 409.773,218.26 404.106,218.593 398.5,219.5C 398.611,218.883 398.944,218.383 399.5,218C 405.016,217.183 410.35,217.349 415.5,218.5 Z"/></g>
<g><path style="opacity:1" fill="#81abd5" d="M 223.5,221.5 C 220.986,221.246 218.652,220.413 216.5,219C 210.138,218.347 203.805,218.513 197.5,219.5C 197.918,218.778 198.584,218.278 199.5,218C 205.833,217.333 212.167,217.333 218.5,218C 220.584,218.697 222.251,219.864 223.5,221.5 Z"/></g>
<g><path style="opacity:1" fill="#77a3cd" d="M 84.5,227.5 C 86.6074,226.532 88.9407,226.198 91.5,226.5C 91.6427,224.738 91.3094,223.071 90.5,221.5C 86.8253,220.317 83.1586,220.317 79.5,221.5C 80.6808,219.933 82.3474,219.099 84.5,219C 87.146,218.503 89.8127,218.336 92.5,218.5C 92.5,221.5 92.5,224.5 92.5,227.5C 89.8333,227.5 87.1667,227.5 84.5,227.5 Z"/></g>
<g><path style="opacity:1" fill="#98bddd" d="M 63.5,200.5 C 48.1667,200.5 32.8333,200.5 17.5,200.5C 17.5,203.167 17.5,205.833 17.5,208.5C 23.69,208.177 29.69,208.51 35.5,209.5C 35.5,226.167 35.5,242.833 35.5,259.5C 34.5035,243.008 34.1702,226.342 34.5,209.5C 28.5,209.5 22.5,209.5 16.5,209.5C 16.5,206.167 16.5,202.833 16.5,199.5C 32.3422,199.17 48.0089,199.504 63.5,200.5 Z"/></g>
<g><path style="opacity:1" fill="#4685bb" d="M 35.5,209.5 C 36.4964,225.658 36.8298,241.991 36.5,258.5C 39.1667,258.5 41.8333,258.5 44.5,258.5C 44.1702,241.991 44.5036,225.658 45.5,209.5C 45.5,226.167 45.5,242.833 45.5,259.5C 42.1667,259.5 38.8333,259.5 35.5,259.5C 35.5,242.833 35.5,226.167 35.5,209.5 Z"/></g>
<g><path style="opacity:1" fill="#b8d6f2" d="M 63.5,208.5 C 58.0247,209.489 52.358,209.822 46.5,209.5C 46.8298,226.342 46.4965,243.008 45.5,259.5C 45.5,242.833 45.5,226.167 45.5,209.5C 51.31,208.51 57.31,208.177 63.5,208.5 Z"/></g>
<g><path style="opacity:1" fill="#4085c6" d="M 74.5,219.5 C 74.2148,221.288 74.5481,222.955 75.5,224.5C 76.6422,223.174 77.9755,222.174 79.5,221.5C 83.1586,220.317 86.8253,220.317 90.5,221.5C 91.3094,223.071 91.6427,224.738 91.5,226.5C 88.9407,226.198 86.6074,226.532 84.5,227.5C 80.6652,228.658 77.6652,230.991 75.5,234.5C 74.5076,242.316 74.1743,250.316 74.5,258.5C 71.5,258.5 68.5,258.5 65.5,258.5C 65.5,245.5 65.5,232.5 65.5,219.5C 68.5,219.5 71.5,219.5 74.5,219.5 Z"/></g>
<g><path style="opacity:1" fill="#8faccb" d="M 335.5,218.5 C 332.167,218.5 328.833,218.5 325.5,218.5C 325.5,238.5 325.5,258.5 325.5,278.5C 325.167,278.5 324.833,278.5 324.5,278.5C 324.5,258.167 324.5,237.833 324.5,217.5C 328.371,217.185 332.038,217.518 335.5,218.5 Z"/></g>
<g><path style="opacity:1" fill="#175595" d="M 337.5,257.5 C 337.44,256.957 337.107,256.624 336.5,256.5C 335.503,263.803 335.169,271.137 335.5,278.5C 332.167,278.5 328.833,278.5 325.5,278.5C 325.5,258.5 325.5,238.5 325.5,218.5C 328.833,218.5 332.167,218.5 335.5,218.5C 335.34,220.199 335.506,221.866 336,223.5C 338.21,219.945 341.377,218.112 345.5,218C 365.205,216.039 374.371,224.873 373,244.5C 369.474,255.539 361.974,260.872 350.5,260.5C 345.737,260.946 341.404,259.946 337.5,257.5 Z"/></g>
<g><path style="opacity:1" fill="#155594" d="M 392.5,218.5 C 392.34,220.199 392.506,221.866 393,223.5C 394.451,221.536 396.284,220.203 398.5,219.5C 404.106,218.593 409.773,218.26 415.5,218.5C 431.224,225.692 434.724,237.025 426,252.5C 422.673,257.273 418.173,259.94 412.5,260.5C 406.423,261.198 400.756,260.198 395.5,257.5C 395.167,257.5 394.833,257.5 394.5,257.5C 394.217,256.711 393.717,256.044 393,255.5C 392.5,263.159 392.334,270.826 392.5,278.5C 389.167,278.5 385.833,278.5 382.5,278.5C 382.5,258.5 382.5,238.5 382.5,218.5C 385.833,218.5 389.167,218.5 392.5,218.5 Z"/></g>
<g><path style="opacity:1" fill="#8cacca" d="M 411.5,227.5 C 407.484,226.257 403.484,226.257 399.5,227.5C 399.611,226.883 399.944,226.383 400.5,226C 403.833,225.333 407.167,225.333 410.5,226C 411.056,226.383 411.389,226.883 411.5,227.5 Z"/></g>
<g><path style="opacity:1" fill="#f5f9fa" d="M 411.5,227.5 C 418.194,230.22 420.694,235.22 419,242.5C 415.69,250.952 409.523,254.118 400.5,252C 392.068,246.642 390.235,239.476 395,230.5C 396.129,228.859 397.629,227.859 399.5,227.5C 403.484,226.257 407.484,226.257 411.5,227.5 Z"/></g>
<g><path style="opacity:1" fill="#f6f9f9" d="M 356.5,250.5 C 352.215,251.295 347.881,251.628 343.5,251.5C 336.418,247.645 333.918,241.645 336,233.5C 345.136,222.608 353.803,222.941 362,234.5C 363.262,240.962 361.428,246.295 356.5,250.5 Z"/></g>
<g><path style="opacity:1" fill="#79a6d3" d="M 120.5,233.5 C 113.798,233.336 107.131,233.669 100.5,234.5C 103.12,232.105 106.287,231.105 110,231.5C 113.76,231.486 117.26,232.153 120.5,233.5 Z"/></g>
<g><path style="opacity:1" fill="#4386c6" d="M 127.5,220.5 C 129.017,220.511 130.184,221.177 131,222.5C 132,224.5 133,226.5 134,228.5C 134.5,238.828 134.666,249.161 134.5,259.5C 131.167,259.5 127.833,259.5 124.5,259.5C 124.719,258.325 124.386,257.325 123.5,256.5C 121.018,258.344 118.351,259.677 115.5,260.5C 111.131,260.533 106.798,260.2 102.5,259.5C 93.2635,254.405 91.0969,247.072 96,237.5C 97.129,235.859 98.629,234.859 100.5,234.5C 107.131,233.669 113.798,233.336 120.5,233.5C 121.209,234.404 122.209,234.737 123.5,234.5C 123.162,227.393 119.329,224.393 112,225.5C 108.489,225.804 104.989,226.137 101.5,226.5C 100.307,226.03 99.6399,225.03 99.5,223.5C 99.2315,220.601 100.565,219.101 103.5,219C 111.704,218.018 119.704,218.518 127.5,220.5 Z"/></g>
<g><path style="opacity:1" fill="#4386c6" d="M 223.5,221.5 C 228.716,224.586 231.382,229.252 231.5,235.5C 231.5,237.833 231.5,240.167 231.5,242.5C 219.833,242.5 208.167,242.5 196.5,242.5C 196.263,243.791 196.596,244.791 197.5,245.5C 198.861,247.527 200.527,249.194 202.5,250.5C 202.611,251.117 202.944,251.617 203.5,252C 210.167,252.667 216.833,252.667 223.5,252C 224.416,251.722 225.082,251.222 225.5,250.5C 227.369,252.635 228.036,255.302 227.5,258.5C 225.901,258.232 224.568,258.566 223.5,259.5C 217.178,260.014 210.845,260.347 204.5,260.5C 195.264,258.954 189.431,253.621 187,244.5C 185.38,236.648 187.047,229.648 192,223.5C 193.451,221.536 195.284,220.203 197.5,219.5C 203.805,218.513 210.138,218.347 216.5,219C 218.652,220.413 220.986,221.246 223.5,221.5 Z"/></g>
<g><path style="opacity:1" fill="#f9fcfc" d="M 212.5,226.5 C 217.791,227.124 220.791,230.124 221.5,235.5C 213.097,236.134 205.097,235.467 197.5,233.5C 197.75,231.326 198.75,229.659 200.5,228.5C 204.342,226.998 208.342,226.332 212.5,226.5 Z"/></g>
<g><path style="opacity:1" fill="#adc9e3" d="M 212.5,226.5 C 208.342,226.332 204.342,226.998 200.5,228.5C 201.058,227.21 202.058,226.377 203.5,226C 206.696,225.195 209.696,225.362 212.5,226.5 Z"/></g>
<g><path style="opacity:1" fill="#99c2e6" d="M 197.5,233.5 C 205.097,235.467 213.097,236.134 221.5,235.5C 213.35,236.493 205.017,236.826 196.5,236.5C 196.263,235.209 196.596,234.209 197.5,233.5 Z"/></g>
<g><path style="opacity:1" fill="#94b9dd" d="M 75.5,234.5 C 75.5,243.167 75.5,251.833 75.5,260.5C 71.6286,260.815 67.9619,260.482 64.5,259.5C 68.0419,259.813 71.3752,259.479 74.5,258.5C 74.1743,250.316 74.5076,242.316 75.5,234.5 Z"/></g>
<g><path style="opacity:1" fill="#5786b1" d="M 74.5,219.5 C 71.5,219.5 68.5,219.5 65.5,219.5C 65.5,232.5 65.5,245.5 65.5,258.5C 68.5,258.5 71.5,258.5 74.5,258.5C 71.3752,259.479 68.0419,259.813 64.5,259.5C 64.5,245.833 64.5,232.167 64.5,218.5C 68.0419,218.187 71.3752,218.521 74.5,219.5 Z"/></g>
<g><path style="opacity:1" fill="#4586c5" d="M 139.5,218.5 C 143.226,218.177 146.893,218.511 150.5,219.5C 153.902,228.207 157.402,236.873 161,245.5C 165.056,236.721 168.556,227.721 171.5,218.5C 175.167,218.5 178.833,218.5 182.5,218.5C 177.255,231.725 172.088,245.058 167,258.5C 163.27,259.46 159.437,259.793 155.5,259.5C 150.45,245.732 145.117,232.066 139.5,218.5 Z"/></g>
<g><path style="opacity:1" fill="#145494" d="M 315.5,257.5 C 312.663,259.402 309.329,260.069 305.5,259.5C 303.829,254.827 302.163,250.161 300.5,245.5C 291.827,245.334 283.16,245.5 274.5,246C 272.544,250.03 270.878,254.197 269.5,258.5C 265.893,259.489 262.226,259.823 258.5,259.5C 266.167,239.5 273.833,219.5 281.5,199.5C 285.437,199.207 289.27,199.54 293,200.5C 300.513,219.521 308.013,238.521 315.5,257.5 Z"/></g>
<g><path style="opacity:1" fill="#83a9c0" d="M 278.5,234.5 C 284.074,236.453 290.074,237.12 296.5,236.5C 290.355,237.49 284.022,237.823 277.5,237.5C 277.263,236.209 277.596,235.209 278.5,234.5 Z"/></g>
<g><path style="opacity:1" fill="#f4f9fa" d="M 296.5,236.5 C 290.074,237.12 284.074,236.453 278.5,234.5C 281.32,226.854 284.153,219.188 287,211.5C 290.658,219.64 293.825,227.974 296.5,236.5 Z"/></g>
<g><path style="opacity:1" fill="#f3f9fa" d="M 108.5,239.5 C 111.187,239.336 113.854,239.503 116.5,240C 118.765,241.118 121.099,241.951 123.5,242.5C 124.571,247.598 122.571,250.764 117.5,252C 113.464,252.85 109.631,252.35 106,250.5C 103.584,246.078 104.417,242.411 108.5,239.5 Z"/></g>
<g><path style="opacity:1" fill="#8eb6db" d="M 231.5,235.5 C 232.473,237.948 232.806,240.615 232.5,243.5C 220.452,242.855 208.785,243.522 197.5,245.5C 196.596,244.791 196.263,243.791 196.5,242.5C 208.167,242.5 219.833,242.5 231.5,242.5C 231.5,240.167 231.5,237.833 231.5,235.5 Z"/></g>
<g><path style="opacity:1" fill="#a5c7e7" d="M 202.5,250.5 C 210.159,251.793 217.826,251.793 225.5,250.5C 225.082,251.222 224.416,251.722 223.5,252C 216.833,252.667 210.167,252.667 203.5,252C 202.944,251.617 202.611,251.117 202.5,250.5 Z"/></g>
<g><path style="opacity:1" fill="#8cafd3" d="M 356.5,250.5 C 354.366,252.033 351.866,252.7 349,252.5C 346.967,252.494 345.134,252.161 343.5,251.5C 347.881,251.628 352.215,251.295 356.5,250.5 Z"/></g>
<g><path style="opacity:1" fill="#a2c0d7" d="M 225.5,250.5 C 226.209,249.596 227.209,249.263 228.5,249.5C 228.81,252.713 228.477,255.713 227.5,258.5C 228.036,255.302 227.369,252.635 225.5,250.5 Z"/></g>
<g><path style="opacity:1" fill="#89adcf" d="M 392.5,218.5 C 389.167,218.5 385.833,218.5 382.5,218.5C 382.5,238.5 382.5,258.5 382.5,278.5C 385.833,278.5 389.167,278.5 392.5,278.5C 389.038,279.482 385.371,279.815 381.5,279.5C 381.5,258.833 381.5,238.167 381.5,217.5C 385.371,217.185 389.038,217.518 392.5,218.5 Z"/></g>
<g><path style="opacity:1" fill="#a4b9d0" d="M 315.5,257.5 C 316.404,258.209 316.737,259.209 316.5,260.5C 312.629,260.815 308.962,260.482 305.5,259.5C 309.329,260.069 312.663,259.402 315.5,257.5 Z"/></g>
<g><path style="opacity:1" fill="#a6c4e4" d="M 102.5,259.5 C 106.798,260.2 111.131,260.533 115.5,260.5C 113.866,261.161 112.033,261.494 110,261.5C 107.134,261.7 104.634,261.033 102.5,259.5 Z"/></g>
<g><path style="opacity:1" fill="#a4c5e6" d="M 223.5,259.5 C 220.135,261.039 216.469,261.706 212.5,261.5C 209.645,261.497 206.978,261.164 204.5,260.5C 210.845,260.347 217.178,260.014 223.5,259.5 Z"/></g>
<g><path style="opacity:1" fill="#afc9df" d="M 395.5,257.5 C 400.756,260.198 406.423,261.198 412.5,260.5C 408.354,261.647 404.02,261.814 399.5,261C 397.907,260.051 396.574,258.885 395.5,257.5 Z"/></g>
<g><path style="opacity:1" fill="#c5cfda" d="M 337.5,257.5 C 336.508,264.648 336.175,271.981 336.5,279.5C 332.298,279.817 328.298,279.483 324.5,278.5C 324.833,278.5 325.167,278.5 325.5,278.5C 328.833,278.5 332.167,278.5 335.5,278.5C 335.169,271.137 335.503,263.803 336.5,256.5C 337.107,256.624 337.44,256.957 337.5,257.5 Z"/></g>
<g><path style="opacity:1" fill="#b0d3ec" d="M 394.5,257.5 C 393.833,264.5 393.167,271.5 392.5,278.5C 392.334,270.826 392.5,263.159 393,255.5C 393.717,256.044 394.217,256.711 394.5,257.5 Z"/></g>
</svg>
