<?xml version="1.0" encoding="UTF-8"?>
<!DOCTYPE svg PUBLIC "-//W3C//DTD SVG 1.1//EN" "http://www.w3.org/Graphics/SVG/1.1/DTD/svg11.dtd">
<svg xmlns="http://www.w3.org/2000/svg" version="1.1" width="464px" height="319px" style="shape-rendering:geometricPrecision; text-rendering:geometricPrecision; image-rendering:optimizeQuality; fill-rule:evenodd; clip-rule:evenodd" xmlns:xlink="http://www.w3.org/1999/xlink">
<g><path style="opacity:1" fill="#95bbdf" d="M 195.5,34.5 C 222.997,33.3364 250.664,33.1697 278.5,34C 283.612,34.9761 288.278,36.8094 292.5,39.5C 287.278,37.7052 281.945,36.2052 276.5,35C 249.502,34.5 222.502,34.3334 195.5,34.5 Z"/></g>
<g><path style="opacity:1" fill="#4185c5" d="M 195.5,34.5 C 222.502,34.3334 249.502,34.5 276.5,35C 281.945,36.2052 287.278,37.7052 292.5,39.5C 306.893,47.5738 315.393,59.9072 318,76.5C 318.948,104.202 318.614,131.868 317,159.5C 313.589,172.691 306.089,182.691 294.5,189.5C 291.515,190.326 288.849,191.659 286.5,193.5C 284.786,194.738 282.786,195.405 280.5,195.5C 278.167,195.5 275.833,195.5 273.5,195.5C 245.475,195.8 217.475,195.466 189.5,194.5C 168.708,187.302 157.208,172.635 155,150.5C 154.066,124.468 154.4,98.4684 156,72.5C 158.771,57.9249 166.604,47.2583 179.5,40.5C 181.819,40.0075 183.819,39.0075 185.5,37.5C 189.048,36.8699 192.381,35.8699 195.5,34.5 Z M 262.5,79.5 C 266.083,80.3863 269.75,81.3863 273.5,82.5C 290.859,92.7487 294.692,106.749 285,124.5C 281.138,127.367 277.638,130.534 274.5,134C 277.814,139.48 281.481,144.647 285.5,149.5C 281.03,150.486 276.363,150.819 271.5,150.5C 268.722,145.882 265.722,141.382 262.5,137C 257.511,136.501 252.511,136.334 247.5,136.5C 247.5,141.167 247.5,145.833 247.5,150.5C 243.167,150.5 238.833,150.5 234.5,150.5C 234.5,130.833 234.5,111.167 234.5,91.5C 228.5,91.5 222.5,91.5 216.5,91.5C 216.5,111.167 216.5,130.833 216.5,150.5C 212.5,150.5 208.5,150.5 204.5,150.5C 204.83,130.993 204.497,111.659 203.5,92.5C 196.687,91.5088 189.687,91.1755 182.5,91.5C 182.5,87.5 182.5,83.5 182.5,79.5C 209.167,79.5 235.833,79.5 262.5,79.5 Z"/></g>
<g><path style="opacity:1" fill="#98bde0" d="M 195.5,34.5 C 192.381,35.8699 189.048,36.8699 185.5,37.5C 188.381,35.32 191.714,34.32 195.5,34.5 Z"/></g>
<g><path style="opacity:1" fill="#9cbfe1" d="M 185.5,37.5 C 183.819,39.0075 181.819,40.0075 179.5,40.5C 180.911,38.461 182.911,37.461 185.5,37.5 Z"/></g>
<g><path style="opacity:1" fill="#8ca4d4" d="M 262.5,79.5 C 265.518,79.3354 268.518,79.502 271.5,80C 272.381,80.7083 273.047,81.5416 273.5,82.5C 269.75,81.3863 266.083,80.3863 262.5,79.5 Z"/></g>
<g><path style="opacity:1" fill="#dec9e5" d="M 203.5,92.5 C 204.497,111.659 204.83,130.993 204.5,150.5C 208.5,150.5 212.5,150.5 216.5,150.5C 216.5,150.833 216.5,151.167 216.5,151.5C 212.167,151.5 207.833,151.5 203.5,151.5C 203.5,131.833 203.5,112.167 203.5,92.5 Z"/></g>
<g><path style="opacity:1" fill="#8f98ce" d="M 247.5,150.5 C 243.03,151.486 238.363,151.819 233.5,151.5C 233.5,131.833 233.5,112.167 233.5,92.5C 228.167,92.5 222.833,92.5 217.5,92.5C 217.83,112.34 217.497,132.007 216.5,151.5C 216.5,151.167 216.5,150.833 216.5,150.5C 216.5,130.833 216.5,111.167 216.5,91.5C 222.5,91.5 228.5,91.5 234.5,91.5C 234.5,111.167 234.5,130.833 234.5,150.5C 238.833,150.5 243.167,150.5 247.5,150.5 Z"/></g>
<g><path style="opacity:1" fill="#4987c6" d="M 267.5,122.5 C 260.857,123.212 254.191,123.546 247.5,123.5C 247.5,112.833 247.5,102.167 247.5,91.5C 253.909,91.1827 260.243,91.6827 266.5,93C 276.31,97.1194 279.81,104.286 277,114.5C 275.154,118.855 271.987,121.521 267.5,122.5 Z"/></g>
<g><path style="opacity:1" fill="#c8c9e5" d="M 267.5,122.5 C 263.594,123.94 259.427,124.606 255,124.5C 252.31,124.497 249.81,124.164 247.5,123.5C 254.191,123.546 260.857,123.212 267.5,122.5 Z"/></g>
<g><path style="opacity:1" fill="#d3cae4" d="M 285.5,149.5 C 286.043,149.56 286.376,149.893 286.5,150.5C 281.348,151.814 276.348,151.814 271.5,150.5C 276.363,150.819 281.03,150.486 285.5,149.5 Z"/></g>
<g><path style="opacity:1" fill="#9ec1e1" d="M 294.5,189.5 C 292.421,191.873 289.754,193.206 286.5,193.5C 288.849,191.659 291.515,190.326 294.5,189.5 Z"/></g>
<g><path style="opacity:1" fill="#669dd0" d="M 189.5,194.5 C 217.475,195.466 245.475,195.8 273.5,195.5C 248.672,196.498 223.672,196.831 198.5,196.5C 195.171,196.785 192.171,196.118 189.5,194.5 Z"/></g>
<g><path style="opacity:1" fill="#bdd5ea" d="M 273.5,195.5 C 275.833,195.5 278.167,195.5 280.5,195.5C 278.708,196.309 276.708,196.809 274.5,197C 248.997,197.83 223.663,197.663 198.5,196.5C 223.672,196.831 248.672,196.498 273.5,195.5 Z"/></g>
<g><path style="opacity:1" fill="#3d85c6" d="M 253.5,213.5 C 256.833,213.5 260.167,213.5 263.5,213.5C 263.5,233.833 263.5,254.167 263.5,274.5C 260.167,274.5 256.833,274.5 253.5,274.5C 253.5,254.167 253.5,233.833 253.5,213.5 Z"/></g>
<g><path style="opacity:1" fill="#7baad7" d="M 253.5,274.5 C 256.833,274.5 260.167,274.5 263.5,274.5C 263.5,254.167 263.5,233.833 263.5,213.5C 260.167,213.5 256.833,213.5 253.5,213.5C 256.684,211.586 260.351,210.92 264.5,211.5C 264.5,233.167 264.5,254.833 264.5,276.5C 260.351,277.08 256.684,276.414 253.5,274.5 Z"/></g>
<g><path style="opacity:1" fill="#94b1cf" d="M 306.5,217.5 C 302.6,216.57 298.6,216.237 294.5,216.5C 295.871,215.213 297.705,214.547 300,214.5C 301.833,214.667 303.667,214.833 305.5,215C 306.252,215.671 306.586,216.504 306.5,217.5 Z"/></g>
<g><path style="opacity:1" fill="#3e85c6" d="M 76.5,224.5 C 70.5,224.5 64.5,224.5 58.5,224.5C 58.5,241.5 58.5,258.5 58.5,275.5C 55.1667,275.5 51.8333,275.5 48.5,275.5C 48.5,258.5 48.5,241.5 48.5,224.5C 42.5,224.5 36.5,224.5 30.5,224.5C 30.5,221.833 30.5,219.167 30.5,216.5C 45.8333,216.5 61.1667,216.5 76.5,216.5C 76.5,219.167 76.5,221.833 76.5,224.5 Z"/></g>
<g><path style="opacity:1" fill="#285e9b" d="M 294.5,216.5 C 298.6,216.237 302.6,216.57 306.5,217.5C 314.391,235.949 321.725,254.616 328.5,273.5C 325.663,275.402 322.329,276.069 318.5,275.5C 316.263,271.466 314.596,267.132 313.5,262.5C 304.808,262.169 296.141,262.502 287.5,263.5C 285.826,267.529 284.159,271.529 282.5,275.5C 278.629,275.815 274.962,275.482 271.5,274.5C 278.776,255.003 286.443,235.67 294.5,216.5 Z M 299.5,229.5 C 300.167,229.833 300.833,230.167 301.5,230.5C 303.606,238.044 306.273,245.377 309.5,252.5C 303.31,252.823 297.31,252.49 291.5,251.5C 294.366,244.236 297.032,236.903 299.5,229.5 Z"/></g>
<g><path style="opacity:1" fill="#bcd5eb" d="M 76.5,224.5 C 71.0247,225.489 65.358,225.822 59.5,225.5C 59.8298,242.342 59.4965,259.008 58.5,275.5C 58.5,258.5 58.5,241.5 58.5,224.5C 64.5,224.5 70.5,224.5 76.5,224.5 Z"/></g>
<g><path style="opacity:1" fill="#a0bad5" d="M 301.5,230.5 C 300.833,230.167 300.167,229.833 299.5,229.5C 300.301,227.207 300.968,227.54 301.5,230.5 Z"/></g>
<g><path style="opacity:1" fill="#a5c5e4" d="M 132.5,233.5 C 136.475,233.486 139.808,234.819 142.5,237.5C 139.011,236.342 135.678,235.009 132.5,233.5 Z"/></g>
<g><path style="opacity:1" fill="#8fb6dd" d="M 233.5,235.5 C 225.841,234.207 218.174,234.207 210.5,235.5C 213.912,233.354 217.745,232.354 222,232.5C 226.255,232.354 230.088,233.354 233.5,235.5 Z"/></g>
<g><path style="opacity:1" fill="#9bbee1" d="M 89.5,239.5 C 89.44,240.043 89.1067,240.376 88.5,240.5C 87.5481,238.955 87.2148,237.288 87.5,235.5C 84.1667,235.5 80.8333,235.5 77.5,235.5C 78.6936,234.223 80.3603,233.556 82.5,233.5C 84.1667,233.667 85.8333,233.833 87.5,234C 88.1094,235.948 88.776,237.782 89.5,239.5 Z"/></g>
<g><path style="opacity:1" fill="#9cbfe1" d="M 105.5,235.5 C 102.833,235.5 100.167,235.5 97.5,235.5C 99.6843,234.734 102.018,234.067 104.5,233.5C 105.298,233.957 105.631,234.624 105.5,235.5 Z"/></g>
<g><path style="opacity:1" fill="#9bbfe1" d="M 119.5,233.5 C 117.064,234.871 114.397,235.871 111.5,236.5C 113.617,234.345 116.284,233.345 119.5,233.5 Z"/></g>
<g><path style="opacity:1" fill="#4c8cc9" d="M 132.5,233.5 C 135.678,235.009 139.011,236.342 142.5,237.5C 145.607,240.04 147.44,243.373 148,247.5C 148.667,256.833 148.667,266.167 148,275.5C 144.606,276.456 141.106,276.789 137.5,276.5C 137.657,275.127 137.49,273.793 137,272.5C 136.617,273.056 136.117,273.389 135.5,273.5C 132.982,274.264 130.649,275.264 128.5,276.5C 124.131,276.533 119.798,276.2 115.5,275.5C 109.314,273.483 106.314,269.15 106.5,262.5C 105.938,256.083 108.605,251.749 114.5,249.5C 121.571,248.137 128.571,248.47 135.5,250.5C 136.598,249.399 136.765,248.066 136,246.5C 134.603,244.93 133.103,243.596 131.5,242.5C 124.868,241.051 118.201,241.384 111.5,243.5C 111.5,241.167 111.5,238.833 111.5,236.5C 114.397,235.871 117.064,234.871 119.5,233.5C 123.965,232.264 128.299,232.264 132.5,233.5 Z M 135.5,258.5 C 137.368,262.516 136.368,265.516 132.5,267.5C 127.438,269.211 122.771,268.544 118.5,265.5C 118.107,262.487 118.774,259.82 120.5,257.5C 125.603,256.119 130.603,256.452 135.5,258.5 Z"/></g>
<g><path style="opacity:1" fill="#4789c8" d="M 233.5,235.5 C 240.256,238.608 243.923,243.941 244.5,251.5C 244.5,253.833 244.5,256.167 244.5,258.5C 232.833,258.5 221.167,258.5 209.5,258.5C 209.263,259.791 209.596,260.791 210.5,261.5C 211.833,263.5 213.5,265.167 215.5,266.5C 215.611,267.117 215.944,267.617 216.5,268C 222.681,268.819 228.681,268.653 234.5,267.5C 235.568,266.566 236.901,266.232 238.5,266.5C 240.369,268.635 241.036,271.302 240.5,274.5C 239.791,275.404 238.791,275.737 237.5,275.5C 230.841,275.954 224.174,276.287 217.5,276.5C 215.898,274.926 213.898,274.259 211.5,274.5C 203.239,271 199.239,264.666 199.5,255.5C 199.039,246.411 202.706,239.745 210.5,235.5C 218.174,234.207 225.841,234.207 233.5,235.5 Z M 229.5,243.5 C 232.164,245.484 233.831,248.151 234.5,251.5C 226.097,252.134 218.097,251.467 210.5,249.5C 211.248,247.668 212.248,246.001 213.5,244.5C 218.716,242.348 224.049,242.015 229.5,243.5 Z"/></g>
<g><path style="opacity:1" fill="#8cadcc" d="M 348.5,234.5 C 345.167,234.5 341.833,234.5 338.5,234.5C 338.5,254.5 338.5,274.5 338.5,294.5C 338.167,294.5 337.833,294.5 337.5,294.5C 337.5,274.167 337.5,253.833 337.5,233.5C 341.371,233.185 345.038,233.518 348.5,234.5 Z"/></g>
<g><path style="opacity:1" fill="#83a5c7" d="M 378.5,237.5 C 370.417,234.327 362.083,233.66 353.5,235.5C 360.591,231.694 367.924,231.528 375.5,235C 376.942,235.377 377.942,236.21 378.5,237.5 Z"/></g>
<g><path style="opacity:1" fill="#1e5998" d="M 348.5,234.5 C 348.5,235.833 348.5,237.167 348.5,238.5C 350.685,239.087 352.352,238.087 353.5,235.5C 362.083,233.66 370.417,234.327 378.5,237.5C 379.5,237.833 380.167,238.5 380.5,239.5C 381.08,241.749 382.413,243.415 384.5,244.5C 387.232,252.18 387.066,259.846 384,267.5C 381.963,269.706 379.797,271.706 377.5,273.5C 374.911,273.461 372.911,274.461 371.5,276.5C 367.399,277.791 363.399,277.791 359.5,276.5C 356.855,274.69 353.855,273.69 350.5,273.5C 350.44,272.957 350.107,272.624 349.5,272.5C 348.503,279.803 348.169,287.137 348.5,294.5C 345.167,294.5 341.833,294.5 338.5,294.5C 338.5,274.5 338.5,254.5 338.5,234.5C 341.833,234.5 345.167,234.5 348.5,234.5 Z M 371.5,245.5 C 376.476,252.338 376.143,259.005 370.5,265.5C 368.847,265.66 367.514,266.326 366.5,267.5C 361.969,267.85 357.636,267.183 353.5,265.5C 349.686,260.882 348.52,255.549 350,249.5C 350.69,247.65 351.856,246.316 353.5,245.5C 359.435,241.652 365.435,241.652 371.5,245.5 Z"/></g>
<g><path style="opacity:1" fill="#85a6c8" d="M 435.5,237.5 C 427.417,234.327 419.083,233.66 410.5,235.5C 417.591,231.694 424.924,231.528 432.5,235C 433.942,235.377 434.942,236.21 435.5,237.5 Z"/></g>
<g><path style="opacity:1" fill="#1c5897" d="M 405.5,234.5 C 405.5,235.833 405.5,237.167 405.5,238.5C 407.685,239.087 409.352,238.087 410.5,235.5C 419.083,233.66 427.417,234.327 435.5,237.5C 436.5,237.833 437.167,238.5 437.5,239.5C 437.738,241.404 438.738,242.738 440.5,243.5C 444.576,251.778 444.409,260.111 440,268.5C 438.296,270.373 436.463,272.04 434.5,273.5C 431.911,273.461 429.911,274.461 428.5,276.5C 428.167,276.5 427.833,276.5 427.5,276.5C 420.672,276.361 414.005,275.361 407.5,273.5C 407.44,272.957 407.107,272.624 406.5,272.5C 405.503,279.468 405.17,286.468 405.5,293.5C 402.167,293.5 398.833,293.5 395.5,293.5C 395.5,273.833 395.5,254.167 395.5,234.5C 398.833,234.5 402.167,234.5 405.5,234.5 Z M 426.5,244.5 C 429.771,247.368 431.771,251.035 432.5,255.5C 431.512,258.076 430.512,260.743 429.5,263.5C 428.5,263.833 427.833,264.5 427.5,265.5C 425.847,265.66 424.514,266.326 423.5,267.5C 419.007,267.731 414.674,267.064 410.5,265.5C 405.167,258.5 405.167,251.5 410.5,244.5C 415.804,241.921 421.137,241.921 426.5,244.5 Z"/></g>
<g><path style="opacity:1" fill="#4187c7" d="M 77.5,235.5 C 80.8333,235.5 84.1667,235.5 87.5,235.5C 87.2148,237.288 87.5481,238.955 88.5,240.5C 89.1067,240.376 89.44,240.043 89.5,239.5C 91.3145,236.593 93.9812,235.259 97.5,235.5C 100.167,235.5 102.833,235.5 105.5,235.5C 105.5,237.833 105.5,240.167 105.5,242.5C 101.753,242.392 98.0863,242.892 94.5,244C 93.0577,244.377 92.0577,245.21 91.5,246.5C 90.5,247.833 89.5,249.167 88.5,250.5C 87.5073,258.65 87.1739,266.983 87.5,275.5C 84.1667,275.5 80.8333,275.5 77.5,275.5C 77.5,262.167 77.5,248.833 77.5,235.5 Z"/></g>
<g><path style="opacity:1" fill="#538fcb" d="M 152.5,233.5 C 156.226,233.177 159.893,233.511 163.5,234.5C 167,243.5 170.5,252.5 174,261.5C 177.943,252.614 181.61,243.614 185,234.5C 188.938,233.046 192.771,233.212 196.5,235C 190.935,248.524 185.268,262.024 179.5,275.5C 175.893,276.489 172.226,276.823 168.5,276.5C 162.879,262.26 157.545,247.927 152.5,233.5 Z"/></g>
<g><path style="opacity:1" fill="#759ac1" d="M 353.5,235.5 C 352.352,238.087 350.685,239.087 348.5,238.5C 349.922,237.075 351.589,236.075 353.5,235.5 Z"/></g>
<g><path style="opacity:1" fill="#759ac1" d="M 410.5,235.5 C 409.352,238.087 407.685,239.087 405.5,238.5C 406.922,237.075 408.589,236.075 410.5,235.5 Z"/></g>
<g><path style="opacity:1" fill="#82a3c6" d="M 380.5,239.5 C 382.587,240.585 383.92,242.251 384.5,244.5C 382.413,243.415 381.08,241.749 380.5,239.5 Z"/></g>
<g><path style="opacity:1" fill="#799bbf" d="M 437.5,239.5 C 439.262,240.262 440.262,241.596 440.5,243.5C 438.738,242.738 437.738,241.404 437.5,239.5 Z"/></g>
<g><path style="opacity:1" fill="#99bee0" d="M 76.5,224.5 C 76.5,221.833 76.5,219.167 76.5,216.5C 61.1667,216.5 45.8333,216.5 30.5,216.5C 30.5,219.167 30.5,221.833 30.5,224.5C 36.5,224.5 42.5,224.5 48.5,224.5C 48.5,241.5 48.5,258.5 48.5,275.5C 51.8333,275.5 55.1667,275.5 58.5,275.5C 55.0381,276.482 51.3714,276.815 47.5,276.5C 47.5,259.5 47.5,242.5 47.5,225.5C 41.5,225.5 35.5,225.5 29.5,225.5C 29.5,222.167 29.5,218.833 29.5,215.5C 45.5,215.5 61.5,215.5 77.5,215.5C 77.81,218.713 77.4767,221.713 76.5,224.5 Z"/></g>
<g><path style="opacity:1" fill="#9dc1e1" d="M 131.5,242.5 C 125.222,242.204 119.055,242.87 113,244.5C 112.235,244.43 111.735,244.097 111.5,243.5C 118.201,241.384 124.868,241.051 131.5,242.5 Z"/></g>
<g><path style="opacity:1" fill="#a6c6e4" d="M 229.5,243.5 C 224.049,242.015 218.716,242.348 213.5,244.5C 214.058,243.21 215.058,242.377 216.5,242C 218.333,241.833 220.167,241.667 222,241.5C 224.866,241.3 227.366,241.967 229.5,243.5 Z"/></g>
<g><path style="opacity:1" fill="#8aabcb" d="M 371.5,245.5 C 365.435,241.652 359.435,241.652 353.5,245.5C 354.981,242.113 357.648,240.779 361.5,241.5C 365.66,241.102 368.993,242.435 371.5,245.5 Z"/></g>
<g><path style="opacity:1" fill="#a2c4e3" d="M 105.5,242.5 C 100.844,243.501 96.1773,244.834 91.5,246.5C 92.0577,245.21 93.0577,244.377 94.5,244C 98.0863,242.892 101.753,242.392 105.5,242.5 Z"/></g>
<g><path style="opacity:1" fill="#88a8c8" d="M 426.5,244.5 C 421.137,241.921 415.804,241.921 410.5,244.5C 412.508,242.073 415.174,241.073 418.5,241.5C 420.709,241.604 422.876,241.937 425,242.5C 426.03,242.836 426.53,243.503 426.5,244.5 Z"/></g>
<g><path style="opacity:1" fill="#a5c5e3" d="M 135.5,250.5 C 128.571,248.47 121.571,248.137 114.5,249.5C 117.356,247.994 120.523,247.328 124,247.5C 128.316,247.107 132.149,248.107 135.5,250.5 Z"/></g>
<g><path style="opacity:1" fill="#93bade" d="M 88.5,250.5 C 88.5,259.167 88.5,267.833 88.5,276.5C 84.6286,276.815 80.9619,276.482 77.5,275.5C 80.8333,275.5 84.1667,275.5 87.5,275.5C 87.1739,266.983 87.5073,258.65 88.5,250.5 Z"/></g>
<g><path style="opacity:1" fill="#9cc0e1" d="M 210.5,249.5 C 218.097,251.467 226.097,252.134 234.5,251.5C 226.35,252.493 218.017,252.826 209.5,252.5C 209.263,251.209 209.596,250.209 210.5,249.5 Z"/></g>
<g><path style="opacity:1" fill="#84a8c8" d="M 291.5,251.5 C 297.31,252.49 303.31,252.823 309.5,252.5C 303.322,253.817 296.988,253.817 290.5,252.5C 290.624,251.893 290.957,251.56 291.5,251.5 Z"/></g>
<g><path style="opacity:1" fill="#94b9dc" d="M 135.5,258.5 C 130.603,256.452 125.603,256.119 120.5,257.5C 120.611,256.883 120.944,256.383 121.5,256C 125.926,255.209 130.259,255.543 134.5,257C 135.056,257.383 135.389,257.883 135.5,258.5 Z"/></g>
<g><path style="opacity:1" fill="#8cb6dd" d="M 244.5,251.5 C 245.473,253.948 245.806,256.615 245.5,259.5C 233.452,258.855 221.785,259.522 210.5,261.5C 209.596,260.791 209.263,259.791 209.5,258.5C 221.167,258.5 232.833,258.5 244.5,258.5C 244.5,256.167 244.5,253.833 244.5,251.5 Z"/></g>
<g><path style="opacity:1" fill="#6689b5" d="M 432.5,255.5 C 432.977,258.917 431.977,261.584 429.5,263.5C 430.512,260.743 431.512,258.076 432.5,255.5 Z"/></g>
<g><path style="opacity:1" fill="#a2bdd6" d="M 370.5,265.5 C 369.713,267.104 368.38,267.771 366.5,267.5C 367.514,266.326 368.847,265.66 370.5,265.5 Z"/></g>
<g><path style="opacity:1" fill="#a2bdd6" d="M 427.5,265.5 C 426.713,267.104 425.38,267.771 423.5,267.5C 424.514,266.326 425.847,265.66 427.5,265.5 Z"/></g>
<g><path style="opacity:1" fill="#a8c7e5" d="M 215.5,266.5 C 221.789,267.372 228.122,267.705 234.5,267.5C 228.681,268.653 222.681,268.819 216.5,268C 215.944,267.617 215.611,267.117 215.5,266.5 Z"/></g>
<g><path style="opacity:1" fill="#8cadcc" d="M 353.5,265.5 C 357.636,267.183 361.969,267.85 366.5,267.5C 363.36,268.641 360.027,268.808 356.5,268C 355.058,267.623 354.058,266.79 353.5,265.5 Z"/></g>
<g><path style="opacity:1" fill="#8babc9" d="M 410.5,265.5 C 414.674,267.064 419.007,267.731 423.5,267.5C 420.36,268.641 417.027,268.808 413.5,268C 412.058,267.623 411.058,266.79 410.5,265.5 Z"/></g>
<g><path style="opacity:1" fill="#93b9dc" d="M 118.5,265.5 C 122.771,268.544 127.438,269.211 132.5,267.5C 132.082,268.222 131.416,268.722 130.5,269C 127.5,269.667 124.5,269.667 121.5,269C 119.574,268.578 118.574,267.411 118.5,265.5 Z"/></g>
<g><path style="opacity:1" fill="#9dc1e2" d="M 238.5,266.5 C 239.209,265.596 240.209,265.263 241.5,265.5C 241.81,268.713 241.477,271.713 240.5,274.5C 241.036,271.302 240.369,268.635 238.5,266.5 Z"/></g>
<g><path style="opacity:1" fill="#bfd1e1" d="M 350.5,273.5 C 349.508,280.648 349.175,287.981 349.5,295.5C 345.298,295.817 341.298,295.483 337.5,294.5C 337.833,294.5 338.167,294.5 338.5,294.5C 341.833,294.5 345.167,294.5 348.5,294.5C 348.169,287.137 348.503,279.803 349.5,272.5C 350.107,272.624 350.44,272.957 350.5,273.5 Z"/></g>
<g><path style="opacity:1" fill="#779cc1" d="M 350.5,273.5 C 353.855,273.69 356.855,274.69 359.5,276.5C 356.084,276.472 353.084,275.472 350.5,273.5 Z"/></g>
<g><path style="opacity:1" fill="#7fa0c4" d="M 407.5,273.5 C 414.005,275.361 420.672,276.361 427.5,276.5C 424.024,277.643 420.358,277.81 416.5,277C 412.995,276.881 409.995,275.714 407.5,273.5 Z"/></g>
<g><path style="opacity:1" fill="#a6bfd7" d="M 377.5,273.5 C 375.967,275.245 373.967,276.245 371.5,276.5C 372.911,274.461 374.911,273.461 377.5,273.5 Z"/></g>
<g><path style="opacity:1" fill="#a9c1d8" d="M 434.5,273.5 C 432.967,275.245 430.967,276.245 428.5,276.5C 429.911,274.461 431.911,273.461 434.5,273.5 Z"/></g>
<g><path style="opacity:1" fill="#b7d1e9" d="M 135.5,273.5 C 133.824,275.834 131.491,276.834 128.5,276.5C 130.649,275.264 132.982,274.264 135.5,273.5 Z"/></g>
<g><path style="opacity:1" fill="#94badf" d="M 211.5,274.5 C 213.898,274.259 215.898,274.926 217.5,276.5C 215.102,276.741 213.102,276.074 211.5,274.5 Z"/></g>
<g><path style="opacity:1" fill="#a8c1d9" d="M 271.5,274.5 C 274.962,275.482 278.629,275.815 282.5,275.5C 278.649,276.809 274.649,276.809 270.5,275.5C 270.624,274.893 270.957,274.56 271.5,274.5 Z"/></g>
<g><path style="opacity:1" fill="#9ebad4" d="M 328.5,273.5 C 329.404,274.209 329.737,275.209 329.5,276.5C 325.629,276.815 321.962,276.482 318.5,275.5C 322.329,276.069 325.663,275.402 328.5,273.5 Z"/></g>
<g><path style="opacity:1" fill="#a7c5e1" d="M 115.5,275.5 C 119.798,276.2 124.131,276.533 128.5,276.5C 126.866,277.161 125.033,277.494 123,277.5C 120.134,277.7 117.634,277.033 115.5,275.5 Z"/></g>
<g><path style="opacity:1" fill="#a6c6e4" d="M 237.5,275.5 C 233.777,276.997 229.777,277.663 225.5,277.5C 222.645,277.497 219.978,277.164 217.5,276.5C 224.174,276.287 230.841,275.954 237.5,275.5 Z"/></g>
<g><path style="opacity:1" fill="#7da2c4" d="M 405.5,234.5 C 402.167,234.5 398.833,234.5 395.5,234.5C 395.5,254.167 395.5,273.833 395.5,293.5C 398.833,293.5 402.167,293.5 405.5,293.5C 402.038,294.482 398.371,294.815 394.5,294.5C 394.5,274.167 394.5,253.833 394.5,233.5C 398.371,233.185 402.038,233.518 405.5,234.5 Z"/></g>
<g><path style="opacity:1" fill="#bfd1e1" d="M 407.5,273.5 C 406.508,280.648 406.175,287.981 406.5,295.5C 402.298,295.817 398.298,295.483 394.5,294.5C 398.371,294.815 402.038,294.482 405.5,293.5C 405.17,286.468 405.503,279.468 406.5,272.5C 407.107,272.624 407.44,272.957 407.5,273.5 Z"/></g>
</svg>
